<svg width="125" height="105" viewBox="0 0 125 105" fill="none" xmlns="http://www.w3.org/2000/svg">
<path fill-rule="evenodd" clip-rule="evenodd" d="M109.642 101.767C107.728 104.231 104.186 104.665 101.731 102.736C99.2766 100.807 98.8382 97.2464 100.752 94.7826C108.954 84.2252 114.455 70.1496 113.071 57.0808C111.623 43.4123 104.818 30.8674 93.821 22.2265C71.7285 4.86723 39.8546 8.77075 22.6285 30.9452C7.91894 49.8802 8.32217 76.4517 23.3761 94.7606C25.361 97.1747 25.0264 100.746 22.6287 102.736C20.231 104.727 16.6781 104.384 14.6932 101.969C-3.71687 79.5787 -4.24019 47.1045 13.7392 23.9604C34.7933 -3.14173 73.7503 -7.91269 100.752 13.3042C114.184 23.8586 122.511 39.2092 124.279 55.9026C125.97 71.8653 119.659 88.8728 109.642 101.767Z" fill="url(#paint0_linear)" fill-opacity="0.8"/>
<defs>
<linearGradient id="paint0_linear" x1="5.43542" y1="104.031" x2="119.682" y2="104.031" gradientUnits="userSpaceOnUse">
<stop stop-color="#FD0000"/>
<stop offset="0.510417" stop-color="#FFBD12"/>
<stop offset="1" stop-color="#00A000"/>
</linearGradient>
</defs>
</svg>
